
    <svg
      j_control="icon"
      xmlns="http://www.w3.org/2000/svg"
      x="82.51875000000001"
      y="92.89727126805778"
      width="80"
      height="64.20545746388443"
    >
      <svg xmlns="http://www.w3.org/2000/svg" viewBox="0 0 115.91 93.1">
        <path
          d="M57.54 76.59c-3.76 0-7.52-.07-11.27 0a5 5 0 0 1-4.92-2.7Q27.07 49 12.71 24.22 7.28 14.8 1.86 5.38C-.46 1.34 0 .23 4.52.14 12.4 0 20.3.12 28.19.07c3 0 4.34 2.07 5.62 4.28l21.61 37.32c2 3.5 2.4 3.51 4.45 0q11-19 21.91-38a5.72 5.72 0 0 1 5-3.24C95-.25 103.3.08 111.56.17c3.32 0 4 1.41 2.26 4.36q-9.19 16.11-18.49 32.17c-7.07 12.22-14.22 24.4-21.18 36.68-1.29 2.28-2.8 3.29-5.34 3.23-3.76-.08-7.52-.02-11.27-.02z"
          fill="rgb(0,132 ,255)"
        ></path>
        <path
          d="M115.87 67.6c0 6.88-.09 13.76 0 20.64.06 3.29-1.16 4.89-4.56 4.86-7.89-.07-15.78 0-23.66 0-3.41 0-5-1.55-4.93-5.06.13-5.88.11-11.76 0-17.63a12.75 12.75 0 0 1 2.17-6.68q13.44-23.18 26.91-46.35c.63-1.09 1.12-2.55 2.61-2.25 1.87.37 1.38 2.16 1.38 3.43.1 16.33.08 32.68.08 49.04zM0 53.41V18.87c0-1.15-.5-2.87 1.12-3.18 1.3-.25 1.56 1.41 2.09 2.32q13.52 23.35 27 46.74a8.82 8.82 0 0 1 1.37 4.58c0 6.26-.09 12.52 0 18.77 0 2.94-1 4.41-4.13 4.37-7.89-.1-15.78-.11-23.67 0C.76 92.52 0 91.05 0 88.32.07 76.68 0 65 0 53.41z"
          fill="rgba(0, 132, 255, 0.4)"
        ></path>
      </svg>
    </svg>